<?xml version="1.0" encoding="UTF-8" standalone="no"?><svg xmlns="http://www.w3.org/2000/svg" xmlns:xlink="http://www.w3.org/1999/xlink" contentStyleType="text/css" height="664px" preserveAspectRatio="none" style="width:1486px;height:664px;background:#FFFFFF;" version="1.1" viewBox="0 0 1486 664" width="1486px" zoomAndPan="magnify"><defs/><g><text fill="#000000" font-family="sans-serif" font-size="14" font-weight="bold" lengthAdjust="spacing" textLength="99" x="686.5" y="24.5332">Anime Domain</text><!--class Anime--><g id="elem_Anime"><rect codeLine="4" fill="#F1F1F1" height="164.3594" id="Anime" rx="2.5" ry="2.5" style="stroke:#181818;stroke-width:0.5;" width="141" x="662" y="45.6094"/><text fill="#000000" font-family="sans-serif" font-size="12" font-style="italic" lengthAdjust="spacing" textLength="71" x="697" y="63.0664">«Aggregate»</text><text fill="#000000" font-family="sans-serif" font-size="14" lengthAdjust="spacing" textLength="39" x="713" y="80.2363">Anime</text><line style="stroke:#181818;stroke-width:0.5;" x1="663" x2="802" y1="88.3125" y2="88.3125"/><text fill="#000000" font-family="sans-serif" font-size="14" lengthAdjust="spacing" textLength="48" x="668" y="106.8457">ID : uint</text><text fill="#000000" font-family="sans-serif" font-size="14" lengthAdjust="spacing" textLength="74" x="668" y="124.4551">Title : string</text><text fill="#000000" font-family="sans-serif" font-size="14" lengthAdjust="spacing" textLength="93" x="668" y="142.0645">Episodes : uint</text><text fill="#000000" font-family="sans-serif" font-size="14" lengthAdjust="spacing" textLength="129" x="668" y="159.6738">DurationValue : float</text><text fill="#000000" font-family="sans-serif" font-size="14" lengthAdjust="spacing" textLength="91" x="668" y="177.2832">Picture : string</text><text fill="#000000" font-family="sans-serif" font-size="14" lengthAdjust="spacing" textLength="113" x="668" y="194.8926">Thumbnail : string</text><line style="stroke:#181818;stroke-width:0.5;" x1="663" x2="802" y1="201.9688" y2="201.9688"/></g><!--class Synonym--><g id="elem_Synonym"><rect codeLine="13" fill="#F1F1F1" height="76.3125" id="Synonym" rx="2.5" ry="2.5" style="stroke:#181818;stroke-width:0.5;" width="117" x="7" y="313.6094"/><text fill="#000000" font-family="sans-serif" font-size="12" font-style="italic" lengthAdjust="spacing" textLength="85" x="23" y="331.0664">«Value Object»</text><text fill="#000000" font-family="sans-serif" font-size="14" lengthAdjust="spacing" textLength="58" x="36.5" y="348.2363">Synonym</text><line style="stroke:#181818;stroke-width:0.5;" x1="8" x2="123" y1="356.3125" y2="356.3125"/><text fill="#000000" font-family="sans-serif" font-size="14" lengthAdjust="spacing" textLength="105" x="13" y="374.8457">Synonym : string</text><line style="stroke:#181818;stroke-width:0.5;" x1="8" x2="123" y1="381.9219" y2="381.9219"/></g><!--class Source--><g id="elem_Source"><rect codeLine="17" fill="#F1F1F1" height="76.3125" id="Source" rx="2.5" ry="2.5" style="stroke:#181818;stroke-width:0.5;" width="104" x="159.5" y="313.6094"/><text fill="#000000" font-family="sans-serif" font-size="12" font-style="italic" lengthAdjust="spacing" textLength="85" x="169" y="331.0664">«Value Object»</text><text fill="#000000" font-family="sans-serif" font-size="14" lengthAdjust="spacing" textLength="45" x="189" y="348.2363">Source</text><line style="stroke:#181818;stroke-width:0.5;" x1="160.5" x2="262.5" y1="356.3125" y2="356.3125"/><text fill="#000000" font-family="sans-serif" font-size="14" lengthAdjust="spacing" textLength="92" x="165.5" y="374.8457">Source : string</text><line style="stroke:#181818;stroke-width:0.5;" x1="160.5" x2="262.5" y1="381.9219" y2="381.9219"/></g><!--class Description--><g id="elem_Description"><rect codeLine="21" fill="#F1F1F1" height="76.3125" id="Description" rx="2.5" ry="2.5" style="stroke:#181818;stroke-width:0.5;" width="130" x="298.5" y="313.6094"/><text fill="#000000" font-family="sans-serif" font-size="12" font-style="italic" lengthAdjust="spacing" textLength="85" x="321" y="331.0664">«Value Object»</text><text fill="#000000" font-family="sans-serif" font-size="14" lengthAdjust="spacing" textLength="71" x="328" y="348.2363">Description</text><line style="stroke:#181818;stroke-width:0.5;" x1="299.5" x2="427.5" y1="356.3125" y2="356.3125"/><text fill="#000000" font-family="sans-serif" font-size="14" lengthAdjust="spacing" textLength="118" x="304.5" y="374.8457">Description : string</text><line style="stroke:#181818;stroke-width:0.5;" x1="299.5" x2="427.5" y1="381.9219" y2="381.9219"/></g><!--class Language--><g id="elem_Language"><rect codeLine="25" fill="#F1F1F1" height="93.9219" id="Language" rx="2.5" ry="2.5" style="stroke:#181818;stroke-width:0.5;" width="107" x="310" y="528.6094"/><text fill="#000000" font-family="sans-serif" font-size="12" font-style="italic" lengthAdjust="spacing" textLength="78" x="324.5" y="546.0664">«enumerator»</text><text fill="#000000" font-family="sans-serif" font-size="14" lengthAdjust="spacing" textLength="64" x="331.5" y="563.2363">Language</text><line style="stroke:#181818;stroke-width:0.5;" x1="311" x2="416" y1="571.3125" y2="571.3125"/><text fill="#000000" font-family="sans-serif" font-size="14" lengthAdjust="spacing" textLength="95" x="316" y="589.8457">PORTUGUESE</text><text fill="#000000" font-family="sans-serif" font-size="14" lengthAdjust="spacing" textLength="58" x="316" y="607.4551">ENGLISH</text><line style="stroke:#181818;stroke-width:0.5;" x1="311" x2="416" y1="614.5313" y2="614.5313"/></g><!--class Season--><g id="elem_Season"><rect codeLine="30" fill="#F1F1F1" height="76.3125" id="Season" rx="2.5" ry="2.5" style="stroke:#181818;stroke-width:0.5;" width="87" x="464" y="313.6094"/><text fill="#000000" font-family="sans-serif" font-size="12" font-style="italic" lengthAdjust="spacing" textLength="85" x="465" y="331.0664">«Value Object»</text><text fill="#000000" font-family="sans-serif" font-size="14" lengthAdjust="spacing" textLength="48" x="483.5" y="348.2363">Season</text><line style="stroke:#181818;stroke-width:0.5;" x1="465" x2="550" y1="356.3125" y2="356.3125"/><text fill="#000000" font-family="sans-serif" font-size="14" lengthAdjust="spacing" textLength="57" x="470" y="374.8457">Year : int</text><line style="stroke:#181818;stroke-width:0.5;" x1="465" x2="550" y1="381.9219" y2="381.9219"/></g><!--class MetSeason--><g id="elem_MetSeason"><rect codeLine="34" fill="#F1F1F1" height="164.3594" id="MetSeason" rx="2.5" ry="2.5" style="stroke:#181818;stroke-width:0.5;" width="98" x="458.5" y="493.6094"/><text fill="#000000" font-family="sans-serif" font-size="12" font-style="italic" lengthAdjust="spacing" textLength="78" x="468.5" y="511.0664">«enumerator»</text><text fill="#000000" font-family="sans-serif" font-size="14" lengthAdjust="spacing" textLength="92" x="461.5" y="528.2363">Meteorological</text><text fill="#000000" font-family="sans-serif" font-size="14" lengthAdjust="spacing" textLength="48" x="483.5" y="545.8457">Season</text><line style="stroke:#181818;stroke-width:0.5;" x1="459.5" x2="555.5" y1="553.9219" y2="553.9219"/><text fill="#000000" font-family="sans-serif" font-size="14" lengthAdjust="spacing" textLength="53" x="464.5" y="572.4551">WINTER</text><text fill="#000000" font-family="sans-serif" font-size="14" lengthAdjust="spacing" textLength="51" x="464.5" y="590.0645">SPRING</text><text fill="#000000" font-family="sans-serif" font-size="14" lengthAdjust="spacing" textLength="59" x="464.5" y="607.6738">SUMMER</text><text fill="#000000" font-family="sans-serif" font-size="14" lengthAdjust="spacing" textLength="34" x="464.5" y="625.2832">FALL</text><text fill="#000000" font-family="sans-serif" font-size="14" lengthAdjust="spacing" textLength="77" x="464.5" y="642.8926">UNDEFINED</text><line style="stroke:#181818;stroke-width:0.5;" x1="459.5" x2="555.5" y1="649.9688" y2="649.9688"/></g><!--class AnimeType--><g id="elem_AnimeType"><rect codeLine="42" fill="#F1F1F1" height="164.3594" id="AnimeType" rx="2.5" ry="2.5" style="stroke:#181818;stroke-width:0.5;" width="125" x="586" y="269.6094"/><text fill="#000000" font-family="sans-serif" font-size="12" font-style="italic" lengthAdjust="spacing" textLength="78" x="609.5" y="287.0664">«enumerator»</text><text fill="#000000" font-family="sans-serif" font-size="14" lengthAdjust="spacing" textLength="71" x="613" y="304.2363">AnimeType</text><line style="stroke:#181818;stroke-width:0.5;" x1="587" x2="710" y1="312.3125" y2="312.3125"/><text fill="#000000" font-family="sans-serif" font-size="14" lengthAdjust="spacing" textLength="18" x="592" y="330.8457">TV</text><text fill="#000000" font-family="sans-serif" font-size="14" lengthAdjust="spacing" textLength="43" x="592" y="348.4551">MOVIE</text><text fill="#000000" font-family="sans-serif" font-size="14" lengthAdjust="spacing" textLength="29" x="592" y="366.0645">OVA</text><text fill="#000000" font-family="sans-serif" font-size="14" lengthAdjust="spacing" textLength="29" x="592" y="383.6738">ONA</text><text fill="#000000" font-family="sans-serif" font-size="14" lengthAdjust="spacing" textLength="57" x="592" y="401.2832">SPECIAL</text><text fill="#000000" font-family="sans-serif" font-size="14" lengthAdjust="spacing" textLength="113" x="592" y="418.8926">UNKNOWN_TYPE</text><line style="stroke:#181818;stroke-width:0.5;" x1="587" x2="710" y1="425.9688" y2="425.9688"/></g><!--class AnimeStatus--><g id="elem_AnimeStatus"><rect codeLine="51" fill="#F1F1F1" height="129.1406" id="AnimeStatus" rx="2.5" ry="2.5" style="stroke:#181818;stroke-width:0.5;" width="143" x="746" y="287.1094"/><text fill="#000000" font-family="sans-serif" font-size="12" font-style="italic" lengthAdjust="spacing" textLength="78" x="778.5" y="304.5664">«enumerator»</text><text fill="#000000" font-family="sans-serif" font-size="14" lengthAdjust="spacing" textLength="79" x="778" y="321.7363">AnimeStatus</text><line style="stroke:#181818;stroke-width:0.5;" x1="747" x2="888" y1="329.8125" y2="329.8125"/><text fill="#000000" font-family="sans-serif" font-size="14" lengthAdjust="spacing" textLength="131" x="752" y="348.3457">UNKNOWN_STATUS</text><text fill="#000000" font-family="sans-serif" font-size="14" lengthAdjust="spacing" textLength="61" x="752" y="365.9551">FINISHED</text><text fill="#000000" font-family="sans-serif" font-size="14" lengthAdjust="spacing" textLength="65" x="752" y="383.5645">ONGOING</text><text fill="#000000" font-family="sans-serif" font-size="14" lengthAdjust="spacing" textLength="73" x="752" y="401.1738">UPCOMING</text><line style="stroke:#181818;stroke-width:0.5;" x1="747" x2="888" y1="408.25" y2="408.25"/></g><!--class RelatedAnime--><g id="elem_RelatedAnime"><rect codeLine="58" fill="#F1F1F1" height="76.3125" id="RelatedAnime" rx="2.5" ry="2.5" style="stroke:#181818;stroke-width:0.5;" width="147" x="924" y="313.6094"/><text fill="#000000" font-family="sans-serif" font-size="12" font-style="italic" lengthAdjust="spacing" textLength="85" x="955" y="331.0664">«Value Object»</text><text fill="#000000" font-family="sans-serif" font-size="14" lengthAdjust="spacing" textLength="88" x="953.5" y="348.2363">RelatedAnime</text><line style="stroke:#181818;stroke-width:0.5;" x1="925" x2="1070" y1="356.3125" y2="356.3125"/><text fill="#000000" font-family="sans-serif" font-size="14" lengthAdjust="spacing" textLength="135" x="930" y="374.8457">RelatedAnime : string</text><line style="stroke:#181818;stroke-width:0.5;" x1="925" x2="1070" y1="381.9219" y2="381.9219"/></g><!--class Tag--><g id="elem_Tag"><rect codeLine="62" fill="#F1F1F1" height="76.3125" id="Tag" rx="2.5" ry="2.5" style="stroke:#181818;stroke-width:0.5;" width="87" x="1106" y="313.6094"/><text fill="#000000" font-family="sans-serif" font-size="12" font-style="italic" lengthAdjust="spacing" textLength="85" x="1107" y="331.0664">«Value Object»</text><text fill="#000000" font-family="sans-serif" font-size="14" lengthAdjust="spacing" textLength="25" x="1137" y="348.2363">Tag</text><line style="stroke:#181818;stroke-width:0.5;" x1="1107" x2="1192" y1="356.3125" y2="356.3125"/><text fill="#000000" font-family="sans-serif" font-size="14" lengthAdjust="spacing" textLength="72" x="1112" y="374.8457">Tag : string</text><line style="stroke:#181818;stroke-width:0.5;" x1="1107" x2="1192" y1="381.9219" y2="381.9219"/></g><!--class Producer--><g id="elem_Producer"><rect codeLine="66" fill="#F1F1F1" height="76.3125" id="Producer" rx="2.5" ry="2.5" style="stroke:#181818;stroke-width:0.5;" width="117" x="1228" y="313.6094"/><text fill="#000000" font-family="sans-serif" font-size="12" font-style="italic" lengthAdjust="spacing" textLength="85" x="1244" y="331.0664">«Value Object»</text><text fill="#000000" font-family="sans-serif" font-size="14" lengthAdjust="spacing" textLength="58" x="1257.5" y="348.2363">Producer</text><line style="stroke:#181818;stroke-width:0.5;" x1="1229" x2="1344" y1="356.3125" y2="356.3125"/><text fill="#000000" font-family="sans-serif" font-size="14" lengthAdjust="spacing" textLength="105" x="1234" y="374.8457">Producer : string</text><line style="stroke:#181818;stroke-width:0.5;" x1="1229" x2="1344" y1="381.9219" y2="381.9219"/></g><!--class Studio--><g id="elem_Studio"><rect codeLine="70" fill="#F1F1F1" height="76.3125" id="Studio" rx="2.5" ry="2.5" style="stroke:#181818;stroke-width:0.5;" width="99" x="1380" y="313.6094"/><text fill="#000000" font-family="sans-serif" font-size="12" font-style="italic" lengthAdjust="spacing" textLength="85" x="1387" y="331.0664">«Value Object»</text><text fill="#000000" font-family="sans-serif" font-size="14" lengthAdjust="spacing" textLength="40" x="1409.5" y="348.2363">Studio</text><line style="stroke:#181818;stroke-width:0.5;" x1="1381" x2="1478" y1="356.3125" y2="356.3125"/><text fill="#000000" font-family="sans-serif" font-size="14" lengthAdjust="spacing" textLength="87" x="1386" y="374.8457">Studio : string</text><line style="stroke:#181818;stroke-width:0.5;" x1="1381" x2="1478" y1="381.9219" y2="381.9219"/></g><!--link Anime to Synonym--><g id="link_Anime_Synonym"><path codeLine="74" d="M661.7,132.4194 C545.66,141.4094 310.98,171.2794 141.5,269.6094 C124.27,279.6094 108.57,294.7194 95.98,309.1994 " fill="none" id="Anime-to-Synonym" style="stroke:#181818;stroke-width:1.0;"/><polygon fill="#181818" points="92.51,313.2594,101.3949,309.0099,95.7557,309.456,95.3096,303.8168,92.51,313.2594" style="stroke:#181818;stroke-width:1.0;"/><text fill="#000000" font-family="sans-serif" font-size="13" lengthAdjust="spacing" textLength="20" x="75.4336" y="302.7914">0..*</text></g><!--link Anime to Source--><g id="link_Anime_Source"><path codeLine="75" d="M661.83,138.1394 C568.15,153.4394 400.7,190.1994 280.5,269.6094 C264.72,280.0294 250.53,295.0694 239.17,309.3694 " fill="none" id="Anime-to-Source" style="stroke:#181818;stroke-width:1.0;"/><polygon fill="#181818" points="236.05,313.3794,244.7364,308.7375,239.1227,309.4349,238.4252,303.8212,236.05,313.3794" style="stroke:#181818;stroke-width:1.0;"/><text fill="#000000" font-family="sans-serif" font-size="13" lengthAdjust="spacing" textLength="20" x="218.6417" y="302.6433">0..*</text></g><!--link Anime to Description--><g id="link_Anime_Description"><path codeLine="76" d="M661.77,156.0694 C601.7,181.0894 514.63,221.4194 446.5,269.6094 C430.27,281.0894 414.22,295.7594 400.62,309.4494 " fill="none" id="Anime-to-Description" style="stroke:#181818;stroke-width:1.0;"/><polygon fill="#181818" points="396.85,313.2894,406.0136,309.6798,400.3569,309.7254,400.3113,304.0688,396.85,313.2894" style="stroke:#181818;stroke-width:1.0;"/><text fill="#000000" font-family="sans-serif" font-size="13" lengthAdjust="spacing" textLength="20" x="380.8633" y="302.8266">0..*</text></g><!--link Anime to Season--><g id="link_Anime_Season"><path codeLine="77" d="M661.69,183.8094 C631.62,208.6494 597,239.1994 568.5,269.6094 C557.04,281.8294 545.68,296.1594 535.91,309.3394 " fill="none" id="Anime-to-Season" style="stroke:#181818;stroke-width:1.0;"/><polygon fill="#181818" points="532.94,313.3894,541.5014,308.5208,535.9079,309.3655,535.0632,303.7721,532.94,313.3894" style="stroke:#181818;stroke-width:1.0;"/></g><!--link Anime to AnimeType--><g id="link_Anime_AnimeType"><path codeLine="78" d="M701.82,209.6994 C695.09,227.4694 687.95,246.3594 681.15,264.3294 " fill="none" id="Anime-to-AnimeType" style="stroke:#181818;stroke-width:1.0;"/><polygon fill="#181818" points="679.24,269.3694,686.1642,262.3654,681.0081,264.6924,678.681,259.5364,679.24,269.3694" style="stroke:#181818;stroke-width:1.0;"/></g><!--link Anime to AnimeStatus--><g id="link_Anime_AnimeStatus"><path codeLine="79" d="M763.55,209.6994 C772.62,233.3994 782.45,259.0794 791.21,281.9294 " fill="none" id="Anime-to-AnimeStatus" style="stroke:#181818;stroke-width:1.0;"/><polygon fill="#181818" points="793.06,286.7694,793.5827,276.9344,791.2747,282.099,786.1101,279.7909,793.06,286.7694" style="stroke:#181818;stroke-width:1.0;"/></g><!--link Anime to RelatedAnime--><g id="link_Anime_RelatedAnime"><path codeLine="80" d="M803.38,184.8194 C835.19,210.3594 873.01,241.1694 906.5,269.6094 C921.68,282.4994 938,296.8694 952.57,309.8794 " fill="none" id="Anime-to-RelatedAnime" style="stroke:#181818;stroke-width:1.0;"/><polygon fill="#181818" points="956.63,313.5094,952.5799,304.5318,952.9001,310.1796,947.2523,310.4997,956.63,313.5094" style="stroke:#181818;stroke-width:1.0;"/><text fill="#000000" font-family="sans-serif" font-size="13" lengthAdjust="spacing" textLength="20" x="927.5688" y="302.7964">0..*</text></g><!--link Anime to Tag--><g id="link_Anime_Tag"><path codeLine="81" d="M803.09,144.3694 C879.33,164.0094 1001.53,203.3194 1088.5,269.6094 C1102.58,280.3394 1115.02,295.1494 1124.93,309.1694 " fill="none" id="Anime-to-Tag" style="stroke:#181818;stroke-width:1.0;"/><polygon fill="#181818" points="1127.92,313.4894,1126.0946,303.8112,1125.0777,309.3758,1119.513,308.3589,1127.92,313.4894" style="stroke:#181818;stroke-width:1.0;"/><text fill="#000000" font-family="sans-serif" font-size="13" lengthAdjust="spacing" textLength="20" x="1102.2948" y="302.7728">0..*</text></g><!--link Anime to Producer--><g id="link_Anime_Producer"><path codeLine="82" d="M803.3,137.5994 C901.01,152.5394 1079.92,189.1794 1210.5,269.6094 C1227.31,279.9594 1242.83,294.9894 1255.4,309.2994 " fill="none" id="Anime-to-Producer" style="stroke:#181818;stroke-width:1.0;"/><polygon fill="#181818" points="1258.87,313.3094,1256.0119,303.8843,1255.6008,309.5262,1249.9589,309.1151,1258.87,313.3094" style="stroke:#181818;stroke-width:1.0;"/><text fill="#000000" font-family="sans-serif" font-size="13" lengthAdjust="spacing" textLength="20" x="1232.4023" y="302.85">0..*</text></g><!--link Anime to Studio--><g id="link_Anime_Studio"><path codeLine="83" d="M803.23,129.8194 C925.94,134.9294 1182.38,159.1894 1362.5,269.6094 C1378.71,279.5494 1392.83,294.8194 1403.87,309.4294 " fill="none" id="Anime-to-Studio" style="stroke:#181818;stroke-width:1.0;"/><polygon fill="#181818" points="1406.9,313.5294,1404.7605,303.9157,1403.9252,309.5106,1398.3304,308.6754,1406.9,313.5294" style="stroke:#181818;stroke-width:1.0;"/><text fill="#000000" font-family="sans-serif" font-size="13" lengthAdjust="spacing" textLength="20" x="1381.0931" y="302.82">0..*</text></g><!--link Description to Language--><g id="link_Description_Language"><path codeLine="85" d="M363.5,389.7694 C363.5,426.2694 363.5,482.2694 363.5,523.0694 " fill="none" id="Description-to-Language" style="stroke:#181818;stroke-width:1.0;"/><polygon fill="#181818" points="363.5,528.4694,367.5,519.4694,363.5,523.4694,359.5,519.4694,363.5,528.4694" style="stroke:#181818;stroke-width:1.0;"/></g><!--link Season to MetSeason--><g id="link_Season_MetSeason"><path codeLine="87" d="M507.5,389.7694 C507.5,416.7094 507.5,454.2694 507.5,488.4994 " fill="none" id="Season-to-MetSeason" style="stroke:#181818;stroke-width:1.0;"/><polygon fill="#181818" points="507.5,493.5294,511.5,484.5294,507.5,488.5294,503.5,484.5294,507.5,493.5294" style="stroke:#181818;stroke-width:1.0;"/></g><!--SRC=[TLDBQ-Cm63nRlqBakD2ovr82fdQpPkC7iPnIA1JL_jRLOaj1bWvXwN-lPDUE6cilUSneHgDFetVM0AwPh3j0YgaESCXP3pWIFMKS8U06FN-1z_TXsqfegOBj5lz3GHBXEwmPLoWWe_WE3qeotg8WFh51D30i2o8jgMA27scdxS8_dQ06BbYjj7ILv5ttRvooxe9zB47ACnVyt9ieaq_-zXTgDQMPEPzCQ5c3NpLH7b44GotPoORsAbtU8zzJtchQsbs1wnxCyOMSb4L-8DMkYilO32hRxPFobniMwF2VBP-1IhEN7UXb_IO51KAAJhIifjqBdmmsc0xOK8lTTOgd92FnmKoWE2JPpdnNQMh_FuRxFGggB8eVaooEd9t66f3poNScSaH1cXyJSwJy69gFBBJMyKCIZcw_i_mfUoNFHNnjM2ggzE2nd4Kb2KbLcc19PYPb4XdpNJvcheg7FBM_Bfu7w4n1cxcowo5-M-2vE49RhyxYdkM558skGNer2-ahfT8D4_vIJfGhckBUt6pnvkVjxO_D_1GynDZeDUxqrI6dUZZ0SidNs7HFQrztdclMJ6qDpcFnX1zFZf3xk2mzloQ4llfimQNTdm00]--></g></svg>