<?xml version="1.0" encoding="UTF-8" standalone="no"?><svg xmlns="http://www.w3.org/2000/svg" xmlns:xlink="http://www.w3.org/1999/xlink" contentStyleType="text/css" height="1157px" preserveAspectRatio="none" style="width:510px;height:1157px;background:#FFFFFF;" version="1.1" viewBox="0 0 510 1157" width="510px" zoomAndPan="magnify"><defs/><g><text fill="#000000" font-family="sans-serif" font-size="14" font-weight="bold" lengthAdjust="spacing" textLength="152" x="172" y="24.5332">Backend Logical View</text><!--cluster Backend--><g id="cluster_Backend"><path d="M8.5,259.6094 L70.5,259.6094 A3.75,3.75 0 0 1 73,262.1094 L80,283.2188 L500.5,283.2188 A2.5,2.5 0 0 1 503,285.7188 L503,1148.1094 A2.5,2.5 0 0 1 500.5,1150.6094 L8.5,1150.6094 A2.5,2.5 0 0 1 6,1148.1094 L6,262.1094 A2.5,2.5 0 0 1 8.5,259.6094 " fill="none" style="stroke:#000000;stroke-width:1.5;"/><line style="stroke:#000000;stroke-width:1.5;" x1="6" x2="80" y1="283.2188" y2="283.2188"/><text fill="#000000" font-family="sans-serif" font-size="14" font-weight="bold" lengthAdjust="spacing" textLength="61" x="10" y="276.1426">Backend</text></g><!--cluster Frameworks & Drivers--><g id="cluster_Frameworks &amp; Drivers"><rect fill="none" height="117" rx="2.5" ry="2.5" style="stroke:#181818;stroke-width:1.0;" width="448" x="30" y="303.6094"/><text fill="#000000" font-family="sans-serif" font-size="14" font-weight="bold" lengthAdjust="spacing" textLength="156" x="176" y="320.1426">Frameworks &amp; Drivers</text></g><!--cluster <color:transparent>______________________________________________________________________________</color> Interface Adapters <color:transparent>______________________________________________________________________________</color>--><g id="cluster_&lt;color:transparent&gt;______________________________________________________________________________&lt;/color&gt; Interface Adapters &lt;color:transparent&gt;______________________________________________________________________________&lt;/color&gt;"><rect fill="none" height="100" rx="2.5" ry="2.5" style="stroke:#181818;stroke-width:1.0;" width="442" x="31" y="546.6094"/><text fill="#000000" font-family="sans-serif" font-size="14" font-weight="bold" lengthAdjust="spacing" textLength="130" x="187" y="563.1426">Interface Adapters</text></g><!--cluster <color:transparent>______________________________________________________________</color> Application Business Rules <color:transparent>______________________________________________________________</color>--><g id="cluster_&lt;color:transparent&gt;______________________________________________________________&lt;/color&gt; Application Business Rules &lt;color:transparent&gt;______________________________________________________________&lt;/color&gt;"><rect fill="none" height="100" rx="2.5" ry="2.5" style="stroke:#181818;stroke-width:1.0;" width="439" x="40" y="772.6094"/><text fill="#000000" font-family="sans-serif" font-size="14" font-weight="bold" lengthAdjust="spacing" textLength="191" x="164" y="789.1426">Application Business Rules</text></g><!--cluster  <color:transparent>___________________________________________________________</color> Domain Business Rules <color:transparent>___________________________________________________________</color>--><g id="cluster_ &lt;color:transparent&gt;___________________________________________________________&lt;/color&gt; Domain Business Rules &lt;color:transparent&gt;___________________________________________________________&lt;/color&gt;"><rect fill="none" height="100" rx="2.5" ry="2.5" style="stroke:#181818;stroke-width:1.0;" width="433" x="38" y="1026.6094"/><text fill="#000000" font-family="sans-serif" font-size="14" font-weight="bold" lengthAdjust="spacing" textLength="4" x="46" y="1043.1426"> </text><text fill="#000000" font-family="sans-serif" font-size="14" font-weight="bold" lengthAdjust="spacing" textLength="165" x="174" y="1043.1426">Domain Business Rules</text></g><!--entity DM_API--><g id="elem_DM_API"><ellipse cx="180" cy="949.6094" fill="#F1F1F1" rx="8" ry="8" style="stroke:#181818;stroke-width:0.5;"/><text fill="#000000" font-family="sans-serif" font-size="14" lengthAdjust="spacing" textLength="46" x="157" y="981.1426">DM API</text></g><!--entity ROUTE--><g id="elem_ROUTE"><rect fill="#F1F1F1" height="47.6094" rx="2.5" ry="2.5" style="stroke:#181818;stroke-width:0.5;" width="114" x="348" y="348.1094"/><rect fill="#F1F1F1" height="10" style="stroke:#181818;stroke-width:0.5;" width="15" x="442" y="353.1094"/><rect fill="#F1F1F1" height="2" style="stroke:#181818;stroke-width:0.5;" width="4" x="440" y="355.1094"/><rect fill="#F1F1F1" height="2" style="stroke:#181818;stroke-width:0.5;" width="4" x="440" y="359.1094"/><text fill="#000000" font-family="sans-serif" font-size="14" lengthAdjust="spacing" textLength="74" x="363" y="382.6426">Chi Routing</text></g><!--entity AF--><g id="elem_AF"><rect fill="#F1F1F1" height="65.2188" rx="2.5" ry="2.5" style="stroke:#181818;stroke-width:0.5;" width="118" x="195" y="339.6094"/><rect fill="#F1F1F1" height="10" style="stroke:#181818;stroke-width:0.5;" width="15" x="293" y="344.6094"/><rect fill="#F1F1F1" height="2" style="stroke:#181818;stroke-width:0.5;" width="4" x="291" y="346.6094"/><rect fill="#F1F1F1" height="2" style="stroke:#181818;stroke-width:0.5;" width="4" x="291" y="350.6094"/><text fill="#000000" font-family="sans-serif" font-size="14" lengthAdjust="spacing" textLength="78" x="210" y="374.1426">Anime Facts</text><text fill="#000000" font-family="sans-serif" font-size="14" lengthAdjust="spacing" textLength="74" x="210" y="391.752">Persistence</text></g><!--entity SOCIAL--><g id="elem_SOCIAL"><rect fill="#F1F1F1" height="65.2188" rx="2.5" ry="2.5" style="stroke:#181818;stroke-width:0.5;" width="114" x="46" y="339.6094"/><rect fill="#F1F1F1" height="10" style="stroke:#181818;stroke-width:0.5;" width="15" x="140" y="344.6094"/><rect fill="#F1F1F1" height="2" style="stroke:#181818;stroke-width:0.5;" width="4" x="138" y="346.6094"/><rect fill="#F1F1F1" height="2" style="stroke:#181818;stroke-width:0.5;" width="4" x="138" y="350.6094"/><text fill="#000000" font-family="sans-serif" font-size="14" lengthAdjust="spacing" textLength="38" x="61" y="374.1426">Social</text><text fill="#000000" font-family="sans-serif" font-size="14" lengthAdjust="spacing" textLength="74" x="61" y="391.752">Persistence</text></g><!--entity HANDLER--><g id="elem_HANDLER"><rect fill="#F1F1F1" height="47.6094" rx="2.5" ry="2.5" style="stroke:#181818;stroke-width:0.5;" width="89" x="342.5" y="582.6094"/><rect fill="#F1F1F1" height="10" style="stroke:#181818;stroke-width:0.5;" width="15" x="411.5" y="587.6094"/><rect fill="#F1F1F1" height="2" style="stroke:#181818;stroke-width:0.5;" width="4" x="409.5" y="589.6094"/><rect fill="#F1F1F1" height="2" style="stroke:#181818;stroke-width:0.5;" width="4" x="409.5" y="593.6094"/><text fill="#000000" font-family="sans-serif" font-size="14" lengthAdjust="spacing" textLength="49" x="357.5" y="617.1426">Handler</text></g><!--entity S_REPO--><g id="elem_S_REPO"><rect fill="#F1F1F1" height="47.6094" rx="2.5" ry="2.5" style="stroke:#181818;stroke-width:0.5;" width="112" x="47" y="582.6094"/><rect fill="#F1F1F1" height="10" style="stroke:#181818;stroke-width:0.5;" width="15" x="139" y="587.6094"/><rect fill="#F1F1F1" height="2" style="stroke:#181818;stroke-width:0.5;" width="4" x="137" y="589.6094"/><rect fill="#F1F1F1" height="2" style="stroke:#181818;stroke-width:0.5;" width="4" x="137" y="593.6094"/><text fill="#000000" font-family="sans-serif" font-size="14" lengthAdjust="spacing" textLength="72" x="62" y="617.1426">SocialRepo</text></g><!--entity A_REPO--><g id="elem_A_REPO"><rect fill="#F1F1F1" height="47.6094" rx="2.5" ry="2.5" style="stroke:#181818;stroke-width:0.5;" width="113" x="194.5" y="582.6094"/><rect fill="#F1F1F1" height="10" style="stroke:#181818;stroke-width:0.5;" width="15" x="287.5" y="587.6094"/><rect fill="#F1F1F1" height="2" style="stroke:#181818;stroke-width:0.5;" width="4" x="285.5" y="589.6094"/><rect fill="#F1F1F1" height="2" style="stroke:#181818;stroke-width:0.5;" width="4" x="285.5" y="593.6094"/><text fill="#000000" font-family="sans-serif" font-size="14" lengthAdjust="spacing" textLength="73" x="209.5" y="617.1426">AnimeRepo</text></g><!--entity SVC--><g id="elem_SVC"><rect fill="#F1F1F1" height="47.6094" rx="2.5" ry="2.5" style="stroke:#181818;stroke-width:0.5;" width="123" x="167.5" y="808.6094"/><rect fill="#F1F1F1" height="10" style="stroke:#181818;stroke-width:0.5;" width="15" x="270.5" y="813.6094"/><rect fill="#F1F1F1" height="2" style="stroke:#181818;stroke-width:0.5;" width="4" x="268.5" y="815.6094"/><rect fill="#F1F1F1" height="2" style="stroke:#181818;stroke-width:0.5;" width="4" x="268.5" y="819.6094"/><text fill="#000000" font-family="sans-serif" font-size="14" lengthAdjust="spacing" textLength="83" x="182.5" y="843.1426">App Services</text></g><!--entity DOMAIN--><g id="elem_DOMAIN"><rect fill="#F1F1F1" height="47.6094" rx="2.5" ry="2.5" style="stroke:#181818;stroke-width:0.5;" width="130" x="115" y="1062.6094"/><rect fill="#F1F1F1" height="10" style="stroke:#181818;stroke-width:0.5;" width="15" x="225" y="1067.6094"/><rect fill="#F1F1F1" height="2" style="stroke:#181818;stroke-width:0.5;" width="4" x="223" y="1069.6094"/><rect fill="#F1F1F1" height="2" style="stroke:#181818;stroke-width:0.5;" width="4" x="223" y="1073.6094"/><text fill="#000000" font-family="sans-serif" font-size="14" lengthAdjust="spacing" textLength="90" x="130" y="1097.1426">Domain Model</text></g><!--entity API--><g id="elem_API"><ellipse cx="405" cy="182.6094" fill="#F1F1F1" rx="8" ry="8" style="stroke:#181818;stroke-width:0.5;"/><text fill="#000000" font-family="sans-serif" font-size="14" lengthAdjust="spacing" textLength="21" x="394.5" y="214.1426">API</text></g><!--entity AnimeDB--><g id="elem_AnimeDB"><path d="M215,54.6094 C215,44.6094 254,44.6094 254,44.6094 C254,44.6094 293,44.6094 293,54.6094 L293,81.2188 C293,91.2188 254,91.2188 254,91.2188 C254,91.2188 215,91.2188 215,81.2188 L215,54.6094 " fill="#F1F1F1" style="stroke:#181818;stroke-width:0.5;"/><path d="M215,54.6094 C215,64.6094 254,64.6094 254,64.6094 C254,64.6094 293,64.6094 293,54.6094 " fill="none" style="stroke:#181818;stroke-width:0.5;"/><text fill="#000000" font-family="sans-serif" font-size="14" lengthAdjust="spacing" textLength="58" x="225" y="83.1426">AnimeDB</text></g><!--entity SocialDB--><g id="elem_SocialDB"><path d="M64.5,169.1094 C64.5,159.1094 103,159.1094 103,159.1094 C103,159.1094 141.5,159.1094 141.5,169.1094 L141.5,195.7188 C141.5,205.7188 103,205.7188 103,205.7188 C103,205.7188 64.5,205.7188 64.5,195.7188 L64.5,169.1094 " fill="#F1F1F1" style="stroke:#181818;stroke-width:0.5;"/><path d="M64.5,169.1094 C64.5,179.1094 103,179.1094 103,179.1094 C103,179.1094 141.5,179.1094 141.5,169.1094 " fill="none" style="stroke:#181818;stroke-width:0.5;"/><text fill="#000000" font-family="sans-serif" font-size="14" lengthAdjust="spacing" textLength="57" x="74.5" y="197.6426">SocialDB</text></g><!--entity AF_DLL--><g id="elem_AF_DLL"><rect fill="#F1F1F1" height="47.6094" rx="2.5" ry="2.5" style="stroke:#181818;stroke-width:0.5;" width="134" x="187" y="158.6094"/><rect fill="#F1F1F1" height="10" style="stroke:#181818;stroke-width:0.5;" width="15" x="301" y="163.6094"/><rect fill="#F1F1F1" height="2" style="stroke:#181818;stroke-width:0.5;" width="4" x="299" y="165.6094"/><rect fill="#F1F1F1" height="2" style="stroke:#181818;stroke-width:0.5;" width="4" x="299" y="169.6094"/><text fill="#000000" font-family="sans-serif" font-size="14" lengthAdjust="spacing" textLength="94" x="202" y="193.1426">anime_facts.dll</text></g><!--link API to ROUTE--><g id="link_API_ROUTE"><path d="M405,191.6694 C405,218.5094 405,305.6094 405,347.7894 " fill="none" id="API-ROUTE" style="stroke:#181818;stroke-width:1.0;"/></g><!--link AnimeDB to AF_DLL--><g id="link_AnimeDB_AF_DLL"><path d="M254,91.8794 C254,111.2694 254,138.9994 254,158.4894 " fill="none" id="AnimeDB-AF_DLL" style="stroke:#181818;stroke-width:1.0;"/><path d="M246.9289,132.2179 A10,10 0 0 0 261.0711 132.2179" fill="none" style="stroke:#181818;stroke-width:1.5;"/><ellipse cx="254" cy="125.1469" fill="#FFFFFF" rx="6" ry="6" style="stroke:#181818;stroke-width:1.5;"/></g><!--link AF_DLL to AF--><g id="link_AF_DLL_AF"><path d="M254,206.9794 C254,240.3594 254,301.7794 254,339.2894 " fill="none" id="AF_DLL-AF" style="stroke:#181818;stroke-width:1.0;"/><path d="M246.9289,278.6567 A10,10 0 0 0 261.0711 278.6567" fill="none" style="stroke:#181818;stroke-width:1.5;"/><ellipse cx="254" cy="271.5856" fill="#FFFFFF" rx="6" ry="6" style="stroke:#181818;stroke-width:1.5;"/></g><!--link SocialDB to SOCIAL--><g id="link_SocialDB_SOCIAL"><path d="M103,206.2294 C103,239.4394 103,301.5494 103,339.3294 " fill="none" id="SocialDB-SOCIAL" style="stroke:#181818;stroke-width:1.0;"/><path d="M95.9289,278.1367 A10,10 0 0 0 110.0711 278.1367" fill="none" style="stroke:#181818;stroke-width:1.5;"/><ellipse cx="103" cy="271.0656" fill="#FFFFFF" rx="6" ry="6" style="stroke:#181818;stroke-width:1.5;"/></g><!--link HANDLER to ROUTE--><g id="link_HANDLER_ROUTE"><path d="M388.78,582.5594 C392.23,538.0694 399.76,440.8194 403.21,396.2494 " fill="none" id="HANDLER-ROUTE" style="stroke:#181818;stroke-width:1.0;"/><text fill="#000000" font-family="sans-serif" font-size="13" lengthAdjust="spacing" textLength="34" x="405" y="489.1045">H API</text><path d="M403.5909,482.9304 A10,10 0 0 0 389.491 481.8384" fill="none" style="stroke:#181818;stroke-width:1.5;"/><ellipse cx="395.995" cy="489.4344" fill="#FFFFFF" rx="6" ry="6" style="stroke:#181818;stroke-width:1.5;"/></g><!--link SVC to HANDLER--><g id="link_SVC_HANDLER"><path d="M247.22,808.3394 C263.72,787.0694 288.51,754.5994 309,725.6094 C331.82,693.3194 356.79,654.9794 372.18,630.9594 " fill="none" id="SVC-HANDLER" style="stroke:#181818;stroke-width:1.0;"/><text fill="#000000" font-family="sans-serif" font-size="13" lengthAdjust="spacing" textLength="42" x="339" y="715.1045">SvcAPI</text><path d="M318.8556,723.9163 A10,10 0 0 0 307.3069 715.7537" fill="none" style="stroke:#181818;stroke-width:1.5;"/><ellipse cx="309" cy="725.6094" fill="#FFFFFF" rx="6" ry="6" style="stroke:#181818;stroke-width:1.5;"/></g><!--link AF to A_REPO--><g id="link_AF_A_REPO"><path d="M253.59,404.9494 C252.98,452.4594 251.84,540.7694 251.3,582.5594 " fill="none" id="AF-A_REPO" style="stroke:#181818;stroke-width:1.0;"/><text fill="#000000" font-family="sans-serif" font-size="13" lengthAdjust="spacing" textLength="42" x="260" y="489.1045">AF API</text><path d="M245.2571,502.8787 A10,10 0 0 0 259.398 503.0611" fill="none" style="stroke:#181818;stroke-width:1.5;"/><ellipse cx="252.4188" cy="495.8994" fill="#FFFFFF" rx="6" ry="6" style="stroke:#181818;stroke-width:1.5;"/></g><!--link SOCIAL to S_REPO--><g id="link_SOCIAL_S_REPO"><path d="M103,404.9494 C103,452.4594 103,540.7694 103,582.5594 " fill="none" id="SOCIAL-S_REPO" style="stroke:#181818;stroke-width:1.0;"/><text fill="#000000" font-family="sans-serif" font-size="13" lengthAdjust="spacing" textLength="43" x="111" y="489.1045">SP API</text><path d="M95.9289,502.9704 A10,10 0 0 0 110.0711 502.9704" fill="none" style="stroke:#181818;stroke-width:1.5;"/><ellipse cx="103" cy="495.8994" fill="#FFFFFF" rx="6" ry="6" style="stroke:#181818;stroke-width:1.5;"/></g><!--link S_REPO to SVC--><g id="link_S_REPO_SVC"><path d="M116.01,630.7394 C140.22,673.7694 191.91,765.6694 216.06,808.6094 " fill="none" id="S_REPO-SVC" style="stroke:#181818;stroke-width:1.0;"/><text fill="#000000" font-family="sans-serif" font-size="13" lengthAdjust="spacing" textLength="43" x="177" y="715.1045">SR API</text><path d="M163.361,729.3377 A10,10 0 0 0 175.6871 722.4046" fill="none" style="stroke:#181818;stroke-width:1.5;"/><ellipse cx="166.0575" cy="719.7081" fill="#FFFFFF" rx="6" ry="6" style="stroke:#181818;stroke-width:1.5;"/></g><!--link A_REPO to SVC--><g id="link_A_REPO_SVC"><path d="M248.73,630.7394 C244.5,673.7694 235.48,765.6694 231.26,808.6094 " fill="none" id="A_REPO-SVC" style="stroke:#181818;stroke-width:1.0;"/><text fill="#000000" font-family="sans-serif" font-size="13" lengthAdjust="spacing" textLength="43" x="250" y="715.1045">AR API</text><path d="M232.263,726.0543 A10,10 0 0 0 246.3375 727.4364" fill="none" style="stroke:#181818;stroke-width:1.5;"/><ellipse cx="239.9913" cy="719.7081" fill="#FFFFFF" rx="6" ry="6" style="stroke:#181818;stroke-width:1.5;"/></g><!--link DM_API to DOMAIN--><g id="link_DM_API_DOMAIN"><path d="M180,958.6494 C180,978.7394 180,1031.7394 180,1062.5394 " fill="none" id="DM_API-DOMAIN" style="stroke:#181818;stroke-width:1.0;"/></g><!--link SVC to DM_API--><g id="link_SVC_DM_API"><path d="M219.08,856.8794 C209.74,878.7994 195.96,911.1494 187.5,930.9994 " fill="none" id="SVC-to-DM_API" style="stroke:#181818;stroke-width:1.0;"/><path d="M192.5073,940.8379 A9,9 0 0 0 176.943 934.2159" fill="none" style="stroke:#181818;stroke-width:1.5;"/></g><!--link S_REPO to DM_API--><g id="link_S_REPO_DM_API"><path d="M105.25,630.6694 C110.28,678.1994 124.16,790.1894 151,880.6094 C156.3,898.4494 164.9,917.8994 171.36,931.4094 " fill="none" id="S_REPO-to-DM_API" style="stroke:#181818;stroke-width:1.0;"/><path d="M182.0418,933.9756 A9,9 0 0 0 166.8508 941.4141" fill="none" style="stroke:#181818;stroke-width:1.5;"/></g><!--SRC=[jLFBRjim43oRNx7reKWFRdCsWW2IPSC2vDYGqlJG1W9BRHmYD2cGj7Ce-k_bIt9QNnjT9EuiP_OnUkOT0kEQ2IIMMu6GK_Q2ieDAxJcZ0Xuulf8F7JvnYL1cxRUok5_33LD2wRdLL9gUQfJsjlslpysNe70xIcTvyrxQ5rf5Nh-BrYX4uiXXcktAAL03xaqwQkbFQdnKyWCMUKJYznkqKOnJaU3XG9Wwz4gw0c5A_PNsYJ9hFdT2H9fLMrGL8RrRBzqxbhJdAVmY4utCKhdt1QqqFU2hqYy6FaAX-Gcr2JcJxujd3hKwMYxtZvwotdwzNteWb0Whh_T3xjm5RYnAXezHsAV4CY_HPhieiufCVfE_gXXzLagBsdNYzj_HtdsRqOEfgZMLdK0TsDRPNL4jwxDWZRsAEcszt6t7OiTubkB_w9_DblMzSF-1vKf2VZJE7SPrVXHepevCbRXKQ52VE4CJHHyM5ynll5Me0-KNh2EUM5FMHdKe0ckntMJbNIGUR5HiO71IiMczcOY3mu9WTfm5UqK7kEFLzMnqrH2y_ZJpcnhS50DfEIID5MOX6bddi0wihiSK7xBcq9nOA25R9IXEsI4k4Yu5uWIctVXxkuZ6SqGzlqFgsC8baaM4nAc4PjC4OcLNwGXdsZ7s1m00]--></g></svg>